<?xml version="1.0" encoding="UTF-8" standalone="no"?>
<!-- Created with Inkscape (http://www.inkscape.org/) -->

<svg
   xmlns:dc="http://purl.org/dc/elements/1.1/"
   xmlns:cc="http://creativecommons.org/ns#"
   xmlns:rdf="http://www.w3.org/1999/02/22-rdf-syntax-ns#"
   xmlns:svg="http://www.w3.org/2000/svg"
   xmlns="http://www.w3.org/2000/svg"
   xmlns:sodipodi="http://sodipodi.sourceforge.net/DTD/sodipodi-0.dtd"
   xmlns:inkscape="http://www.inkscape.org/namespaces/inkscape"
   width="335.2977"
   height="124.99363"
   id="svg2"
   version="1.1"
   inkscape:version="0.48.5 r10040"
   sodipodi:docname="drawing.svg">
  <defs
     id="defs4">
    <filter
       inkscape:collect="always"
       id="filter3777"
       color-interpolation-filters="sRGB">
      <feGaussianBlur
         inkscape:collect="always"
         stdDeviation="0.45210954"
         id="feGaussianBlur3779" />
    </filter>
  </defs>
  <sodipodi:namedview
     id="base"
     pagecolor="#ffffff"
     bordercolor="#666666"
     borderopacity="1.0"
     inkscape:pageopacity="0.0"
     inkscape:pageshadow="2"
     inkscape:zoom="1"
     inkscape:cx="208.04769"
     inkscape:cy="0.34668738"
     inkscape:document-units="px"
     inkscape:current-layer="layer1"
     showgrid="false"
     showborder="false"
     inkscape:window-width="1366"
     inkscape:window-height="702"
     inkscape:window-x="0"
     inkscape:window-y="27"
     inkscape:window-maximized="1"
     fit-margin-top="0"
     fit-margin-left="0"
     fit-margin-right="0"
     fit-margin-bottom="0" />
  <metadata
     id="metadata7">
    <rdf:RDF>
      <cc:Work
         rdf:about="">
        <dc:format>image/svg+xml</dc:format>
        <dc:type
           rdf:resource="http://purl.org/dc/dcmitype/StillImage" />
        <dc:title />
      </cc:Work>
    </rdf:RDF>
  </metadata>
  <g
     inkscape:label="Layer 1"
     inkscape:groupmode="layer"
     id="layer1"
     transform="translate(269.04769,-473.64381)">
    <path
       style="font-size:40px;font-style:normal;font-variant:normal;font-weight:normal;font-stretch:normal;text-align:start;line-height:100%;letter-spacing:5.78999996px;word-spacing:0px;writing-mode:lr-tb;text-anchor:start;fill:#00d1b2;fill-opacity:1;stroke:none;font-family:Yukarimobile;-inkscape-font-specification:Yukarimobile"
       d="m -202.47152,473.64381 -29.66752,1.12288 c -4.64071,3.02895 -9.04546,6.50419 -13.1199,10.57865 -31.17613,31.17613 -31.68975,81.41995 -1.65476,113.2921 l -6.08716,-28.54465 40.48257,1.53657 c -2.24834,-6.22117 -3.48682,-12.91953 -3.48682,-19.91624 0,-4.27676 0.43063,-8.45334 1.30017,-12.46982 l -21.09822,-16.42942 38.41412,-29.90391 -5.08248,-19.26616 z m 18.73426,38.94601 -5.85076,58.92134 14.71556,0.0591 2.95493,-29.54932 7.56463,-0.0591 1.06377,-11.05144 -7.50552,-0.0591 0.70918,-7.32824 11.11055,0 1.06377,-10.93324 -25.82611,0 z m 87.347797,18.26148 -4.077807,40.65986 14.656464,0.0591 3.014031,-29.54932 7.38733,0 -0.768282,7.38733 14.833759,0 1.891157,-18.55697 -36.936652,0 z m -51.770407,0.11819 -4.01871,40.54167 36.75935,0.0591 4.07781,-40.60077 -36.81845,0 z m 118.25638,0 -14.656464,0.0591 -4.018707,40.54167 36.818454,0 4.0187073,-40.54167 -14.7155623,-0.0591 -2.954932,29.54932 -7.446429,0 2.954933,-29.54932 z m 37.1730454,0 -4.0187077,40.54167 14.5973643,0.0591 2.954932,-29.54932 7.446429,0 -2.954932,29.54932 14.656463,0 3.014031,-29.54932 7.38733,0 -4.432398,44.32398 14.774661,0.0591 5.555272,-55.43453 -58.9804446,0 z m -141.7776454,11.05145 7.32823,0 -1.77295,18.43878 -7.38733,0 1.83205,-18.43878 z"
       id="flowRoot3753"
       inkscape:connector-curvature="0" />
    <text
       xml:space="preserve"
       style="font-size:40px;font-style:normal;font-variant:normal;font-weight:normal;font-stretch:normal;line-height:125%;letter-spacing:0px;word-spacing:0px;fill:#000000;fill-opacity:1;stroke:none;font-family:Serif;-inkscape-font-specification:Serif"
       x="69"
       y="497.36218"
       id="text2986"
       sodipodi:linespacing="125%"><tspan
         sodipodi:role="line"
         id="tspan2988"
         x="69"
         y="497.36218" /></text>
  </g>
</svg>
